<mxfile host="app.diagrams.net" agent="Mozilla/5.0 (Windows NT 10.0; Win64; x64) AppleWebKit/537.36 (KHTML, like Gecko) Chrome/134.0.0.0 Safari/537.36" version="26.2.8">
  <diagram name="Page-1" id="jvWSPrIiiRmUjL27uLQX">
    <mxGraphModel dx="2040" dy="1070" grid="1" gridSize="10" guides="1" tooltips="1" connect="1" arrows="1" fold="1" page="1" pageScale="1" pageWidth="827" pageHeight="1169" math="0" shadow="0">
      <root>
        <mxCell id="0" />
        <mxCell id="1" parent="0" />
        <mxCell id="-Y7ou1ebB63ttZiL-2xU-1" value="user" style="swimlane;fontStyle=0;childLayout=stackLayout;horizontal=1;startSize=30;horizontalStack=0;resizeParent=1;resizeParentMax=0;resizeLast=0;collapsible=1;marginBottom=0;whiteSpace=wrap;html=1;" parent="1" vertex="1">
          <mxGeometry x="40" y="40" width="140" height="270" as="geometry">
            <mxRectangle x="340" y="330" width="70" height="30" as="alternateBounds" />
          </mxGeometry>
        </mxCell>
        <mxCell id="-Y7ou1ebB63ttZiL-2xU-2" value="_id: ObjectID" style="text;strokeColor=none;fillColor=none;align=left;verticalAlign=middle;spacingLeft=4;spacingRight=4;overflow=hidden;points=[[0,0.5],[1,0.5]];portConstraint=eastwest;rotatable=0;whiteSpace=wrap;html=1;" parent="-Y7ou1ebB63ttZiL-2xU-1" vertex="1">
          <mxGeometry y="30" width="140" height="30" as="geometry" />
        </mxCell>
        <mxCell id="-Y7ou1ebB63ttZiL-2xU-3" value="username: string" style="text;strokeColor=none;fillColor=none;align=left;verticalAlign=middle;spacingLeft=4;spacingRight=4;overflow=hidden;points=[[0,0.5],[1,0.5]];portConstraint=eastwest;rotatable=0;whiteSpace=wrap;html=1;" parent="-Y7ou1ebB63ttZiL-2xU-1" vertex="1">
          <mxGeometry y="60" width="140" height="30" as="geometry" />
        </mxCell>
        <mxCell id="-Y7ou1ebB63ttZiL-2xU-4" value="email: string" style="text;strokeColor=none;fillColor=none;align=left;verticalAlign=middle;spacingLeft=4;spacingRight=4;overflow=hidden;points=[[0,0.5],[1,0.5]];portConstraint=eastwest;rotatable=0;whiteSpace=wrap;html=1;" parent="-Y7ou1ebB63ttZiL-2xU-1" vertex="1">
          <mxGeometry y="90" width="140" height="30" as="geometry" />
        </mxCell>
        <mxCell id="jExz9yzcrIT3w6c_LpxT-1" value="password: string" style="text;strokeColor=none;fillColor=none;align=left;verticalAlign=middle;spacingLeft=4;spacingRight=4;overflow=hidden;points=[[0,0.5],[1,0.5]];portConstraint=eastwest;rotatable=0;whiteSpace=wrap;html=1;" parent="-Y7ou1ebB63ttZiL-2xU-1" vertex="1">
          <mxGeometry y="120" width="140" height="30" as="geometry" />
        </mxCell>
        <mxCell id="jExz9yzcrIT3w6c_LpxT-2" value="isadminL boolean" style="text;strokeColor=none;fillColor=none;align=left;verticalAlign=middle;spacingLeft=4;spacingRight=4;overflow=hidden;points=[[0,0.5],[1,0.5]];portConstraint=eastwest;rotatable=0;whiteSpace=wrap;html=1;" parent="-Y7ou1ebB63ttZiL-2xU-1" vertex="1">
          <mxGeometry y="150" width="140" height="30" as="geometry" />
        </mxCell>
        <mxCell id="jExz9yzcrIT3w6c_LpxT-3" value="created_at: date" style="text;strokeColor=none;fillColor=none;align=left;verticalAlign=middle;spacingLeft=4;spacingRight=4;overflow=hidden;points=[[0,0.5],[1,0.5]];portConstraint=eastwest;rotatable=0;whiteSpace=wrap;html=1;" parent="-Y7ou1ebB63ttZiL-2xU-1" vertex="1">
          <mxGeometry y="180" width="140" height="30" as="geometry" />
        </mxCell>
        <mxCell id="jExz9yzcrIT3w6c_LpxT-4" value="updated_at: date" style="text;strokeColor=none;fillColor=none;align=left;verticalAlign=middle;spacingLeft=4;spacingRight=4;overflow=hidden;points=[[0,0.5],[1,0.5]];portConstraint=eastwest;rotatable=0;whiteSpace=wrap;html=1;" parent="-Y7ou1ebB63ttZiL-2xU-1" vertex="1">
          <mxGeometry y="210" width="140" height="30" as="geometry" />
        </mxCell>
        <mxCell id="jExz9yzcrIT3w6c_LpxT-5" value="last_login: date" style="text;strokeColor=none;fillColor=none;align=left;verticalAlign=middle;spacingLeft=4;spacingRight=4;overflow=hidden;points=[[0,0.5],[1,0.5]];portConstraint=eastwest;rotatable=0;whiteSpace=wrap;html=1;" parent="-Y7ou1ebB63ttZiL-2xU-1" vertex="1">
          <mxGeometry y="240" width="140" height="30" as="geometry" />
        </mxCell>
        <mxCell id="jExz9yzcrIT3w6c_LpxT-6" value="userContribution" style="swimlane;fontStyle=0;childLayout=stackLayout;horizontal=1;startSize=30;horizontalStack=0;resizeParent=1;resizeParentMax=0;resizeLast=0;collapsible=1;marginBottom=0;whiteSpace=wrap;html=1;" parent="1" vertex="1">
          <mxGeometry x="240" y="40" width="140" height="240" as="geometry" />
        </mxCell>
        <mxCell id="jExz9yzcrIT3w6c_LpxT-7" value="_id: ObjectID" style="text;strokeColor=none;fillColor=none;align=left;verticalAlign=middle;spacingLeft=4;spacingRight=4;overflow=hidden;points=[[0,0.5],[1,0.5]];portConstraint=eastwest;rotatable=0;whiteSpace=wrap;html=1;" parent="jExz9yzcrIT3w6c_LpxT-6" vertex="1">
          <mxGeometry y="30" width="140" height="30" as="geometry" />
        </mxCell>
        <mxCell id="jExz9yzcrIT3w6c_LpxT-8" value="userId: ObjectID" style="text;strokeColor=none;fillColor=none;align=left;verticalAlign=middle;spacingLeft=4;spacingRight=4;overflow=hidden;points=[[0,0.5],[1,0.5]];portConstraint=eastwest;rotatable=0;whiteSpace=wrap;html=1;" parent="jExz9yzcrIT3w6c_LpxT-6" vertex="1">
          <mxGeometry y="60" width="140" height="30" as="geometry" />
        </mxCell>
        <mxCell id="jExz9yzcrIT3w6c_LpxT-9" value="mediaId: string" style="text;strokeColor=none;fillColor=none;align=left;verticalAlign=middle;spacingLeft=4;spacingRight=4;overflow=hidden;points=[[0,0.5],[1,0.5]];portConstraint=eastwest;rotatable=0;whiteSpace=wrap;html=1;" parent="jExz9yzcrIT3w6c_LpxT-6" vertex="1">
          <mxGeometry y="90" width="140" height="30" as="geometry" />
        </mxCell>
        <mxCell id="jExz9yzcrIT3w6c_LpxT-10" value="mediaType: string" style="text;strokeColor=none;fillColor=none;align=left;verticalAlign=middle;spacingLeft=4;spacingRight=4;overflow=hidden;points=[[0,0.5],[1,0.5]];portConstraint=eastwest;rotatable=0;whiteSpace=wrap;html=1;" parent="jExz9yzcrIT3w6c_LpxT-6" vertex="1">
          <mxGeometry y="120" width="140" height="30" as="geometry" />
        </mxCell>
        <mxCell id="jExz9yzcrIT3w6c_LpxT-11" value="tag: string" style="text;strokeColor=none;fillColor=none;align=left;verticalAlign=middle;spacingLeft=4;spacingRight=4;overflow=hidden;points=[[0,0.5],[1,0.5]];portConstraint=eastwest;rotatable=0;whiteSpace=wrap;html=1;" parent="jExz9yzcrIT3w6c_LpxT-6" vertex="1">
          <mxGeometry y="150" width="140" height="30" as="geometry" />
        </mxCell>
        <mxCell id="jExz9yzcrIT3w6c_LpxT-12" value="timestamp: date" style="text;strokeColor=none;fillColor=none;align=left;verticalAlign=middle;spacingLeft=4;spacingRight=4;overflow=hidden;points=[[0,0.5],[1,0.5]];portConstraint=eastwest;rotatable=0;whiteSpace=wrap;html=1;" parent="jExz9yzcrIT3w6c_LpxT-6" vertex="1">
          <mxGeometry y="180" width="140" height="30" as="geometry" />
        </mxCell>
        <mxCell id="jExz9yzcrIT3w6c_LpxT-13" value="updated_at: date" style="text;strokeColor=none;fillColor=none;align=left;verticalAlign=middle;spacingLeft=4;spacingRight=4;overflow=hidden;points=[[0,0.5],[1,0.5]];portConstraint=eastwest;rotatable=0;whiteSpace=wrap;html=1;" parent="jExz9yzcrIT3w6c_LpxT-6" vertex="1">
          <mxGeometry y="210" width="140" height="30" as="geometry" />
        </mxCell>
        <mxCell id="jExz9yzcrIT3w6c_LpxT-14" value="MediaTag" style="swimlane;fontStyle=0;childLayout=stackLayout;horizontal=1;startSize=30;horizontalStack=0;resizeParent=1;resizeParentMax=0;resizeLast=0;collapsible=1;marginBottom=0;whiteSpace=wrap;html=1;" parent="1" vertex="1">
          <mxGeometry x="440" y="40" width="140" height="180" as="geometry" />
        </mxCell>
        <mxCell id="jExz9yzcrIT3w6c_LpxT-15" value="_id: ObjectID" style="text;strokeColor=none;fillColor=none;align=left;verticalAlign=middle;spacingLeft=4;spacingRight=4;overflow=hidden;points=[[0,0.5],[1,0.5]];portConstraint=eastwest;rotatable=0;whiteSpace=wrap;html=1;" parent="jExz9yzcrIT3w6c_LpxT-14" vertex="1">
          <mxGeometry y="30" width="140" height="30" as="geometry" />
        </mxCell>
        <mxCell id="jExz9yzcrIT3w6c_LpxT-16" value="mediaId: string" style="text;strokeColor=none;fillColor=none;align=left;verticalAlign=middle;spacingLeft=4;spacingRight=4;overflow=hidden;points=[[0,0.5],[1,0.5]];portConstraint=eastwest;rotatable=0;whiteSpace=wrap;html=1;" parent="jExz9yzcrIT3w6c_LpxT-14" vertex="1">
          <mxGeometry y="60" width="140" height="30" as="geometry" />
        </mxCell>
        <mxCell id="jExz9yzcrIT3w6c_LpxT-17" value="mediaType: string" style="text;strokeColor=none;fillColor=none;align=left;verticalAlign=middle;spacingLeft=4;spacingRight=4;overflow=hidden;points=[[0,0.5],[1,0.5]];portConstraint=eastwest;rotatable=0;whiteSpace=wrap;html=1;" parent="jExz9yzcrIT3w6c_LpxT-14" vertex="1">
          <mxGeometry y="90" width="140" height="30" as="geometry" />
        </mxCell>
        <mxCell id="jExz9yzcrIT3w6c_LpxT-18" value="tags: array" style="text;strokeColor=none;fillColor=none;align=left;verticalAlign=middle;spacingLeft=4;spacingRight=4;overflow=hidden;points=[[0,0.5],[1,0.5]];portConstraint=eastwest;rotatable=0;whiteSpace=wrap;html=1;" parent="jExz9yzcrIT3w6c_LpxT-14" vertex="1">
          <mxGeometry y="120" width="140" height="30" as="geometry" />
        </mxCell>
        <mxCell id="jExz9yzcrIT3w6c_LpxT-19" value="updated_at: date" style="text;strokeColor=none;fillColor=none;align=left;verticalAlign=middle;spacingLeft=4;spacingRight=4;overflow=hidden;points=[[0,0.5],[1,0.5]];portConstraint=eastwest;rotatable=0;whiteSpace=wrap;html=1;" parent="jExz9yzcrIT3w6c_LpxT-14" vertex="1">
          <mxGeometry y="150" width="140" height="30" as="geometry" />
        </mxCell>
        <mxCell id="jExz9yzcrIT3w6c_LpxT-30" value="" style="edgeStyle=entityRelationEdgeStyle;fontSize=12;html=1;endArrow=ERoneToMany;rounded=0;exitX=1;exitY=0.5;exitDx=0;exitDy=0;entryX=0;entryY=0.5;entryDx=0;entryDy=0;" parent="1" source="-Y7ou1ebB63ttZiL-2xU-4" target="jExz9yzcrIT3w6c_LpxT-9" edge="1">
          <mxGeometry width="100" height="100" relative="1" as="geometry">
            <mxPoint x="230" y="390" as="sourcePoint" />
            <mxPoint x="330" y="290" as="targetPoint" />
          </mxGeometry>
        </mxCell>
        <mxCell id="jExz9yzcrIT3w6c_LpxT-58" style="edgeStyle=orthogonalEdgeStyle;rounded=0;orthogonalLoop=1;jettySize=auto;html=1;entryX=0;entryY=0.5;entryDx=0;entryDy=0;" parent="1" source="jExz9yzcrIT3w6c_LpxT-31" target="jExz9yzcrIT3w6c_LpxT-42" edge="1">
          <mxGeometry relative="1" as="geometry" />
        </mxCell>
        <mxCell id="jExz9yzcrIT3w6c_LpxT-59" style="edgeStyle=orthogonalEdgeStyle;rounded=0;orthogonalLoop=1;jettySize=auto;html=1;entryX=0.5;entryY=1;entryDx=0;entryDy=0;" parent="1" source="jExz9yzcrIT3w6c_LpxT-31" target="jExz9yzcrIT3w6c_LpxT-48" edge="1">
          <mxGeometry relative="1" as="geometry" />
        </mxCell>
        <mxCell id="jExz9yzcrIT3w6c_LpxT-31" value="User (without account)" style="shape=umlActor;verticalLabelPosition=bottom;verticalAlign=top;html=1;outlineConnect=0;" parent="1" vertex="1">
          <mxGeometry x="80" y="440" width="30" height="60" as="geometry" />
        </mxCell>
        <mxCell id="jExz9yzcrIT3w6c_LpxT-56" style="edgeStyle=orthogonalEdgeStyle;rounded=0;orthogonalLoop=1;jettySize=auto;html=1;entryX=0;entryY=0.5;entryDx=0;entryDy=0;" parent="1" source="jExz9yzcrIT3w6c_LpxT-32" target="jExz9yzcrIT3w6c_LpxT-50" edge="1">
          <mxGeometry relative="1" as="geometry" />
        </mxCell>
        <mxCell id="jExz9yzcrIT3w6c_LpxT-57" style="edgeStyle=orthogonalEdgeStyle;rounded=0;orthogonalLoop=1;jettySize=auto;html=1;entryX=0.5;entryY=1;entryDx=0;entryDy=0;" parent="1" source="jExz9yzcrIT3w6c_LpxT-32" target="jExz9yzcrIT3w6c_LpxT-51" edge="1">
          <mxGeometry relative="1" as="geometry" />
        </mxCell>
        <mxCell id="jExz9yzcrIT3w6c_LpxT-32" value="User (with account)" style="shape=umlActor;verticalLabelPosition=bottom;verticalAlign=top;html=1;outlineConnect=0;" parent="1" vertex="1">
          <mxGeometry x="80" y="540" width="30" height="60" as="geometry" />
        </mxCell>
        <mxCell id="jExz9yzcrIT3w6c_LpxT-54" style="edgeStyle=orthogonalEdgeStyle;rounded=0;orthogonalLoop=1;jettySize=auto;html=1;entryX=0.5;entryY=1;entryDx=0;entryDy=0;" parent="1" source="jExz9yzcrIT3w6c_LpxT-33" target="jExz9yzcrIT3w6c_LpxT-53" edge="1">
          <mxGeometry relative="1" as="geometry" />
        </mxCell>
        <mxCell id="jExz9yzcrIT3w6c_LpxT-55" style="edgeStyle=orthogonalEdgeStyle;rounded=0;orthogonalLoop=1;jettySize=auto;html=1;entryX=0;entryY=0.5;entryDx=0;entryDy=0;" parent="1" source="jExz9yzcrIT3w6c_LpxT-33" target="jExz9yzcrIT3w6c_LpxT-52" edge="1">
          <mxGeometry relative="1" as="geometry" />
        </mxCell>
        <mxCell id="jExz9yzcrIT3w6c_LpxT-33" value="Admin" style="shape=umlActor;verticalLabelPosition=bottom;verticalAlign=top;html=1;outlineConnect=0;" parent="1" vertex="1">
          <mxGeometry x="80" y="640" width="30" height="60" as="geometry" />
        </mxCell>
        <mxCell id="jExz9yzcrIT3w6c_LpxT-38" value="&lt;font style=&quot;font-size: 16px;&quot;&gt;Diagramme de classes&lt;/font&gt;" style="text;html=1;align=center;verticalAlign=middle;whiteSpace=wrap;rounded=0;" parent="1" vertex="1">
          <mxGeometry x="40" y="10" width="170" height="30" as="geometry" />
        </mxCell>
        <mxCell id="jExz9yzcrIT3w6c_LpxT-39" value="&lt;font style=&quot;font-size: 16px;&quot;&gt;Diagramme de use cases&lt;/font&gt;" style="text;html=1;align=center;verticalAlign=middle;whiteSpace=wrap;rounded=0;" parent="1" vertex="1">
          <mxGeometry x="40" y="370" width="190" height="30" as="geometry" />
        </mxCell>
        <mxCell id="jExz9yzcrIT3w6c_LpxT-41" value="" style="rounded=0;whiteSpace=wrap;html=1;fillColor=none;" parent="1" vertex="1">
          <mxGeometry x="240" y="440" width="250" height="280" as="geometry" />
        </mxCell>
        <mxCell id="jExz9yzcrIT3w6c_LpxT-42" value="View Media pages" style="ellipse;whiteSpace=wrap;html=1;" parent="1" vertex="1">
          <mxGeometry x="260" y="450" width="100" height="50" as="geometry" />
        </mxCell>
        <mxCell id="jExz9yzcrIT3w6c_LpxT-46" style="edgeStyle=orthogonalEdgeStyle;rounded=0;orthogonalLoop=1;jettySize=auto;html=1;entryX=0.5;entryY=0;entryDx=0;entryDy=0;entryPerimeter=0;" parent="1" source="jExz9yzcrIT3w6c_LpxT-31" target="jExz9yzcrIT3w6c_LpxT-32" edge="1">
          <mxGeometry relative="1" as="geometry" />
        </mxCell>
        <mxCell id="jExz9yzcrIT3w6c_LpxT-47" style="edgeStyle=orthogonalEdgeStyle;rounded=0;orthogonalLoop=1;jettySize=auto;html=1;entryX=0.5;entryY=0;entryDx=0;entryDy=0;entryPerimeter=0;" parent="1" source="jExz9yzcrIT3w6c_LpxT-32" target="jExz9yzcrIT3w6c_LpxT-33" edge="1">
          <mxGeometry relative="1" as="geometry" />
        </mxCell>
        <mxCell id="jExz9yzcrIT3w6c_LpxT-48" value="Create account" style="ellipse;whiteSpace=wrap;html=1;" parent="1" vertex="1">
          <mxGeometry x="380" y="450" width="100" height="50" as="geometry" />
        </mxCell>
        <mxCell id="jExz9yzcrIT3w6c_LpxT-50" value="Add tags to media" style="ellipse;whiteSpace=wrap;html=1;" parent="1" vertex="1">
          <mxGeometry x="260" y="530" width="100" height="50" as="geometry" />
        </mxCell>
        <mxCell id="jExz9yzcrIT3w6c_LpxT-51" value="View profile" style="ellipse;whiteSpace=wrap;html=1;" parent="1" vertex="1">
          <mxGeometry x="380" y="530" width="100" height="50" as="geometry" />
        </mxCell>
        <mxCell id="jExz9yzcrIT3w6c_LpxT-52" value="See any user statistics" style="ellipse;whiteSpace=wrap;html=1;" parent="1" vertex="1">
          <mxGeometry x="260" y="630" width="100" height="50" as="geometry" />
        </mxCell>
        <mxCell id="jExz9yzcrIT3w6c_LpxT-53" value="Manage users (ban/promote)" style="ellipse;whiteSpace=wrap;html=1;" parent="1" vertex="1">
          <mxGeometry x="380" y="630" width="100" height="50" as="geometry" />
        </mxCell>
        <mxCell id="M1m2fgjW_8roO_qM4Vk0-1" value="&lt;font style=&quot;font-size: 16px;&quot;&gt;Diagramme d&#39;activity&lt;/font&gt;" style="text;html=1;align=center;verticalAlign=middle;whiteSpace=wrap;rounded=0;" parent="1" vertex="1">
          <mxGeometry x="40" y="770" width="150" height="30" as="geometry" />
        </mxCell>
        <mxCell id="mL0JWm1mo5fetphfN9Sb-1" value="" style="endArrow=none;html=1;rounded=0;" edge="1" parent="1">
          <mxGeometry width="50" height="50" relative="1" as="geometry">
            <mxPoint x="40" y="880" as="sourcePoint" />
            <mxPoint x="560" y="880" as="targetPoint" />
          </mxGeometry>
        </mxCell>
        <mxCell id="mL0JWm1mo5fetphfN9Sb-2" value="" style="endArrow=none;html=1;rounded=0;" edge="1" parent="1">
          <mxGeometry width="50" height="50" relative="1" as="geometry">
            <mxPoint x="400" y="1200" as="sourcePoint" />
            <mxPoint x="400" y="840" as="targetPoint" />
          </mxGeometry>
        </mxCell>
        <mxCell id="mL0JWm1mo5fetphfN9Sb-3" value="" style="endArrow=none;html=1;rounded=0;" edge="1" parent="1">
          <mxGeometry width="50" height="50" relative="1" as="geometry">
            <mxPoint x="200" y="1200" as="sourcePoint" />
            <mxPoint x="200" y="840" as="targetPoint" />
          </mxGeometry>
        </mxCell>
        <mxCell id="mL0JWm1mo5fetphfN9Sb-4" value="&lt;font style=&quot;font-size: 14px;&quot;&gt;Client&lt;/font&gt;" style="text;html=1;align=center;verticalAlign=middle;whiteSpace=wrap;rounded=0;" vertex="1" parent="1">
          <mxGeometry x="50" y="850" width="140" height="30" as="geometry" />
        </mxCell>
        <mxCell id="mL0JWm1mo5fetphfN9Sb-5" value="&lt;font style=&quot;font-size: 14px;&quot;&gt;Server&lt;/font&gt;" style="text;html=1;align=center;verticalAlign=middle;whiteSpace=wrap;rounded=0;" vertex="1" parent="1">
          <mxGeometry x="230" y="850" width="140" height="30" as="geometry" />
        </mxCell>
        <mxCell id="mL0JWm1mo5fetphfN9Sb-6" value="&lt;font style=&quot;font-size: 14px;&quot;&gt;Database&lt;/font&gt;" style="text;html=1;align=center;verticalAlign=middle;whiteSpace=wrap;rounded=0;" vertex="1" parent="1">
          <mxGeometry x="410" y="850" width="140" height="30" as="geometry" />
        </mxCell>
        <mxCell id="mL0JWm1mo5fetphfN9Sb-10" style="edgeStyle=orthogonalEdgeStyle;rounded=0;orthogonalLoop=1;jettySize=auto;html=1;entryX=0.5;entryY=0;entryDx=0;entryDy=0;" edge="1" parent="1" source="mL0JWm1mo5fetphfN9Sb-7" target="mL0JWm1mo5fetphfN9Sb-9">
          <mxGeometry relative="1" as="geometry" />
        </mxCell>
        <mxCell id="mL0JWm1mo5fetphfN9Sb-7" value="Inputs 3 words in a media page" style="rounded=1;whiteSpace=wrap;html=1;" vertex="1" parent="1">
          <mxGeometry x="60" y="900" width="120" height="60" as="geometry" />
        </mxCell>
        <mxCell id="mL0JWm1mo5fetphfN9Sb-13" style="edgeStyle=orthogonalEdgeStyle;rounded=0;orthogonalLoop=1;jettySize=auto;html=1;entryX=0;entryY=0.5;entryDx=0;entryDy=0;" edge="1" parent="1" source="mL0JWm1mo5fetphfN9Sb-9" target="mL0JWm1mo5fetphfN9Sb-12">
          <mxGeometry relative="1" as="geometry" />
        </mxCell>
        <mxCell id="mL0JWm1mo5fetphfN9Sb-9" value="Clicks &quot;submit/update tags&quot; button" style="rounded=1;whiteSpace=wrap;html=1;" vertex="1" parent="1">
          <mxGeometry x="60" y="980" width="120" height="60" as="geometry" />
        </mxCell>
        <mxCell id="mL0JWm1mo5fetphfN9Sb-19" style="edgeStyle=orthogonalEdgeStyle;rounded=0;orthogonalLoop=1;jettySize=auto;html=1;entryX=0.5;entryY=0;entryDx=0;entryDy=0;" edge="1" parent="1" source="mL0JWm1mo5fetphfN9Sb-12" target="mL0JWm1mo5fetphfN9Sb-16">
          <mxGeometry relative="1" as="geometry" />
        </mxCell>
        <mxCell id="mL0JWm1mo5fetphfN9Sb-20" value="Success" style="edgeLabel;html=1;align=center;verticalAlign=middle;resizable=0;points=[];" vertex="1" connectable="0" parent="mL0JWm1mo5fetphfN9Sb-19">
          <mxGeometry x="-0.1776" y="2" relative="1" as="geometry">
            <mxPoint x="-2" y="3" as="offset" />
          </mxGeometry>
        </mxCell>
        <mxCell id="mL0JWm1mo5fetphfN9Sb-21" style="edgeStyle=orthogonalEdgeStyle;rounded=0;orthogonalLoop=1;jettySize=auto;html=1;entryX=0.5;entryY=0;entryDx=0;entryDy=0;" edge="1" parent="1" source="mL0JWm1mo5fetphfN9Sb-12" target="mL0JWm1mo5fetphfN9Sb-22">
          <mxGeometry relative="1" as="geometry">
            <mxPoint x="110" y="1070" as="targetPoint" />
            <Array as="points">
              <mxPoint x="300" y="1060" />
              <mxPoint x="115" y="1060" />
            </Array>
          </mxGeometry>
        </mxCell>
        <mxCell id="mL0JWm1mo5fetphfN9Sb-23" value="Error" style="edgeLabel;html=1;align=center;verticalAlign=middle;resizable=0;points=[];" vertex="1" connectable="0" parent="mL0JWm1mo5fetphfN9Sb-21">
          <mxGeometry x="0.25" relative="1" as="geometry">
            <mxPoint as="offset" />
          </mxGeometry>
        </mxCell>
        <mxCell id="mL0JWm1mo5fetphfN9Sb-12" value="Verifies input sanitizes if needed" style="rhombus;whiteSpace=wrap;html=1;" vertex="1" parent="1">
          <mxGeometry x="250" y="950" width="100" height="100" as="geometry" />
        </mxCell>
        <mxCell id="mL0JWm1mo5fetphfN9Sb-25" style="edgeStyle=orthogonalEdgeStyle;rounded=0;orthogonalLoop=1;jettySize=auto;html=1;entryX=0;entryY=0.5;entryDx=0;entryDy=0;" edge="1" parent="1" source="mL0JWm1mo5fetphfN9Sb-16" target="mL0JWm1mo5fetphfN9Sb-24">
          <mxGeometry relative="1" as="geometry" />
        </mxCell>
        <mxCell id="mL0JWm1mo5fetphfN9Sb-16" value="Checks the three words of the user on the current mediaId for duplicates etc..." style="rounded=1;whiteSpace=wrap;html=1;" vertex="1" parent="1">
          <mxGeometry x="240" y="1090" width="120" height="60" as="geometry" />
        </mxCell>
        <mxCell id="mL0JWm1mo5fetphfN9Sb-22" value="Shows toast with error" style="rounded=1;whiteSpace=wrap;html=1;" vertex="1" parent="1">
          <mxGeometry x="55" y="1090" width="120" height="60" as="geometry" />
        </mxCell>
        <mxCell id="mL0JWm1mo5fetphfN9Sb-27" style="edgeStyle=orthogonalEdgeStyle;rounded=0;orthogonalLoop=1;jettySize=auto;html=1;entryX=0.5;entryY=0;entryDx=0;entryDy=0;" edge="1" parent="1" source="mL0JWm1mo5fetphfN9Sb-24" target="mL0JWm1mo5fetphfN9Sb-26">
          <mxGeometry relative="1" as="geometry" />
        </mxCell>
        <mxCell id="mL0JWm1mo5fetphfN9Sb-24" value="Returns the usercontribution objects that have been updated or added" style="rounded=1;whiteSpace=wrap;html=1;" vertex="1" parent="1">
          <mxGeometry x="430" y="900" width="120" height="70" as="geometry" />
        </mxCell>
        <mxCell id="mL0JWm1mo5fetphfN9Sb-26" value="Updates the MediaTag object for the given mediaId" style="rounded=1;whiteSpace=wrap;html=1;" vertex="1" parent="1">
          <mxGeometry x="430" y="990" width="120" height="70" as="geometry" />
        </mxCell>
        <mxCell id="mL0JWm1mo5fetphfN9Sb-28" value="&lt;font style=&quot;font-size: 14px;&quot;&gt;Kohai website&lt;/font&gt;" style="text;html=1;align=center;verticalAlign=middle;whiteSpace=wrap;rounded=0;" vertex="1" parent="1">
          <mxGeometry x="240" y="410" width="100" height="30" as="geometry" />
        </mxCell>
      </root>
    </mxGraphModel>
  </diagram>
</mxfile>
